<?xml version="1.0" standalone="no"?>
<!DOCTYPE svg PUBLIC "-//W3C//DTD SVG 20010904//EN"
 "http://www.w3.org/TR/2001/REC-SVG-20010904/DTD/svg10.dtd">
<svg version="1.0" xmlns="http://www.w3.org/2000/svg"
 width="750.000000pt" height="1000.000000pt" viewBox="0 0 750.000000 1000.000000"
 preserveAspectRatio="xMidYMid meet">

<g transform="translate(0.000000,1000.000000) scale(0.100000,-0.100000)"
fill="#000000" stroke="none">
<path d="M230 8288 l0 -1713 30 52 c35 61 63 83 107 83 26 0 55 -19 157 -105
69 -58 134 -121 146 -139 26 -44 22 -142 -9 -204 -28 -54 -27 -68 9 -109 17
-18 30 -38 30 -43 0 -4 -13 -21 -29 -37 -20 -21 -32 -47 -41 -89 -15 -72 -33
-94 -76 -94 -27 0 -36 6 -49 30 -8 16 -15 43 -15 59 0 21 -7 35 -24 46 -22 15
-28 15 -61 1 -61 -26 -81 -21 -115 27 -16 23 -36 51 -44 62 -13 18 -15 -321
-16 -3047 l0 -3068 2115 0 c1163 0 2115 2 2115 5 0 27 -192 339 -288 469 -95
129 -247 280 -338 338 -61 39 -97 78 -266 279 -199 239 -232 271 -548 540
-326 277 -445 372 -600 479 -207 142 -318 228 -395 306 -50 51 -77 94 -166
265 -112 215 -209 424 -254 549 -48 133 -210 807 -250 1039 -42 245 -39 352
21 806 18 143 36 280 40 305 3 25 13 74 23 110 l18 65 44 7 c77 12 152 9 224
-9 39 -10 71 -17 71 -18 1 0 -2 -25 -7 -55 -59 -369 -84 -811 -59 -1048 17
-162 39 -238 130 -462 48 -118 115 -287 150 -375 78 -201 117 -278 179 -359
26 -35 75 -106 106 -158 153 -246 284 -420 396 -523 86 -79 182 -154 514 -403
375 -282 456 -349 515 -420 24 -30 98 -95 163 -145 247 -186 390 -336 605
-632 128 -175 260 -340 408 -510 158 -181 226 -288 256 -401 l12 -44 1053 0
1053 0 0 3904 0 3905 -42 6 c-24 3 -78 7 -121 9 -42 1 -80 6 -84 9 -11 11
-231 8 -238 -3 -3 -5 -13 -10 -20 -10 -21 0 -115 -42 -115 -52 0 -4 -4 -8 -9
-8 -11 0 -64 -44 -103 -85 -39 -41 -92 -148 -114 -231 -16 -57 -18 -100 -16
-254 2 -138 -3 -235 -20 -380 -24 -220 -27 -349 -14 -700 11 -291 5 -375 -27
-384 -12 -3 -22 -4 -24 -3 -5 6 -19 821 -30 1805 l-6 614 491 -4 492 -3 0 332
0 332 -483 -6 c-324 -4 -486 -3 -490 4 -4 6 -10 279 -13 607 l-7 596 -277 0
-277 0 -7 -577 c-4 -318 -9 -585 -12 -594 -4 -14 -58 -17 -507 -22 -276 -4
-745 -7 -1042 -7 -297 0 -738 -5 -980 -10 -242 -5 -619 -12 -837 -16 l-398 -7
1 199 c1 109 5 213 9 229 4 17 8 26 9 20 0 -5 13 -23 27 -40 14 -16 33 -43 41
-60 20 -38 72 -105 83 -105 4 0 10 13 13 29 7 36 43 71 72 71 11 0 31 -7 43
-16 27 -18 30 -69 6 -103 -10 -14 -13 -26 -7 -32 13 -13 239 -39 341 -39 46 0
115 7 155 16 59 14 104 16 257 10 102 -3 253 -12 335 -20 83 -8 193 -17 245
-20 52 -4 170 -11 261 -16 181 -12 173 -13 309 47 l65 28 477 2 c518 3 556 6
692 60 78 32 167 105 195 162 13 25 20 71 25 151 3 64 15 149 25 190 37 142
43 197 35 337 l-7 133 -293 0 -294 0 0 -24 c0 -38 -46 -69 -91 -61 -34 6 -39
4 -53 -23 -20 -40 -67 -72 -103 -72 -65 0 -100 63 -67 119 29 49 75 60 150 36
15 -5 23 -2 27 9 6 14 -51 16 -592 16 -531 0 -600 -2 -612 -16 -43 -52 -145
-58 -186 -10 l-22 26 -388 0 c-325 -1 -391 -3 -407 -15 -25 -19 -60 -19 -76 0
-11 13 -158 15 -1211 15 l-1199 0 0 -1712z m2022 1675 c39 -35 6 -113 -49
-113 -30 0 -63 34 -63 65 0 54 71 85 112 48z m780 -14 c37 -16 73 -76 72 -120
-3 -82 -75 -149 -147 -135 -21 4 -52 19 -69 35 -62 55 -44 174 33 213 39 20
78 23 111 7z m566 -256 c28 -37 -4 -113 -48 -113 -31 0 -70 39 -70 70 0 59 82
89 118 43z m-1086 -130 c40 -36 8 -113 -47 -113 -29 0 -65 32 -65 59 0 10 9
30 21 45 24 30 63 34 91 9z m1890 -40 c22 -20 23 -70 1 -95 -23 -26 -78 -24
-97 4 -21 30 -20 50 5 82 24 30 63 34 91 9z m-1287 -58 c26 -20 26 -82 0 -101
-45 -33 -105 -7 -105 46 0 61 57 90 105 55z m917 -50 c43 -29 88 -113 88 -164
0 -71 -69 -141 -138 -141 -49 0 -87 24 -124 78 -28 41 -33 55 -33 111 0 62 1
64 44 102 54 48 106 53 163 14z m1024 -3 c52 -34 25 -122 -38 -122 -56 0 -86
60 -52 108 15 22 66 30 90 14z m-1625 -60 c95 -106 -15 -272 -144 -219 -96 41
-101 192 -7 240 52 27 117 18 151 -21z m2410 -1212 c26 0 27 -17 34 -430 3
-201 7 -428 10 -505 7 -192 13 -519 21 -1037 7 -396 6 -438 -9 -438 -59 0 -71
95 -63 495 8 344 11 301 -50 715 -7 52 -14 151 -14 220 -2 224 -25 341 -85
436 -19 30 -35 58 -35 62 0 9 -92 92 -101 92 -4 0 -14 6 -21 13 -21 20 -113
64 -149 72 -19 4 -40 12 -46 17 -14 11 -362 0 -383 -12 -6 -3 -37 -5 -183 -10
-60 -2 -111 -8 -114 -13 -3 -5 -65 49 -137 121 -72 72 -150 140 -173 151 -24
12 -43 22 -43 24 0 1 75 3 168 5 92 2 255 7 362 12 107 4 359 9 559 9 201 1
367 4 370 7 3 3 19 3 35 0 16 -3 37 -6 47 -6z m-651 -860 c0 -5 7 -10 15 -10
36 0 64 -98 44 -158 -25 -79 -69 -94 -106 -37 -26 39 -31 120 -12 158 22 41
59 71 59 47z m1755 -48 c35 -25 45 -124 20 -186 -13 -29 -20 -36 -44 -36 -23
0 -32 7 -45 34 -43 91 9 232 69 188z m-4659 -757 c29 -30 58 -55 65 -55 7 0
41 18 75 41 81 53 134 61 171 28 14 -13 32 -38 39 -56 l13 -31 69 34 c82 41
163 60 215 50 39 -7 60 -23 88 -66 l16 -24 32 26 c80 68 198 61 237 -14 l17
-32 23 27 c81 94 169 102 277 24 24 -17 26 -17 83 14 75 39 130 37 205 -10 61
-38 78 -39 109 -6 27 29 90 49 123 40 12 -3 44 -16 70 -28 l49 -21 26 32 c36
43 59 41 171 -13 51 -25 97 -43 102 -39 5 3 9 16 9 29 0 13 8 31 17 40 23 23
66 15 164 -31 79 -37 94 -38 94 -6 0 28 38 25 125 -11 l83 -35 64 30 c42 20
81 31 115 32 47 1 52 -1 58 -24 4 -19 13 -26 37 -28 25 -3 36 3 54 27 31 42
76 42 121 2 l32 -28 7 -144 c4 -79 12 -162 18 -184 6 -22 14 -93 17 -157 l7
-116 -39 -11 c-21 -5 -68 -14 -104 -20 -36 -6 -81 -13 -100 -17 -19 -3 -494
-9 -1055 -13 l-1020 -7 -126 -32 c-234 -59 -359 -67 -424 -27 -33 20 -53 24
-111 25 -77 0 -222 -33 -315 -72 -48 -19 -74 -22 -221 -25 -100 -1 -176 -6
-188 -13 -31 -17 -123 -14 -182 6 -46 15 -64 15 -182 4 -138 -13 -221 -5 -262
25 -19 13 -18 14 2 37 46 52 54 115 32 234 -11 59 -9 72 16 166 37 138 71 236
109 315 27 57 37 68 75 86 66 28 133 20 177 -23 37 -36 50 -34 58 9 20 98 117
92 237 -14 69 -61 87 -59 125 16 25 52 76 89 119 89 24 0 41 -12 82 -55z
m4859 -196 c40 -76 19 -208 -38 -239 -25 -14 -30 -13 -59 3 -34 19 -48 12 -48
-27 0 -26 -39 -86 -55 -86 -23 0 -52 39 -59 78 -12 78 23 160 63 149 9 -2 22
-6 30 -8 9 -3 18 8 24 26 30 97 57 133 99 134 21 1 31 -6 43 -30z m-353 -415
c10 -17 21 -52 24 -77 l7 -47 -72 0 c-67 0 -71 1 -71 23 0 66 45 141 79 135 8
-2 23 -17 33 -34z m-1067 -181 c17 -16 48 -51 70 -78 22 -27 56 -68 75 -91 33
-38 74 -105 70 -112 -1 -2 6 -14 15 -28 17 -26 15 -41 -4 -29 -6 3 -11 13 -11
21 0 8 -3 14 -7 14 -5 0 -16 17 -26 38 -10 21 -32 53 -50 72 -18 19 -50 57
-72 85 -61 76 -110 122 -155 145 -22 11 -38 25 -35 29 7 13 94 -32 130 -66z
m-2399 -373 c384 -31 678 -95 799 -175 77 -52 108 -114 108 -219 0 -89 -16
-141 -66 -215 -35 -51 -155 -181 -168 -181 -5 0 -9 26 -9 58 -1 132 -72 362
-129 414 -50 45 -89 51 -334 55 -272 5 -316 -3 -383 -70 -60 -61 -86 -137 -92
-269 -2 -60 -6 -108 -8 -108 -10 0 -392 195 -417 212 -16 11 -57 64 -92 118
-50 75 -80 109 -135 150 l-70 54 103 17 c122 21 214 54 294 105 32 20 72 43
88 50 37 16 325 19 511 4z m2714 -52 c54 -43 78 -84 60 -102 -7 -7 -10 -5 -10
6 0 9 -27 43 -61 77 -70 70 -65 80 11 19z m-65 -193 c32 -14 74 -29 94 -33 32
-7 40 -15 71 -76 32 -64 35 -76 35 -160 0 -69 -4 -99 -18 -124 -24 -44 -161
-182 -214 -215 l-41 -26 -10 27 c-6 15 -27 71 -46 125 -50 137 -79 189 -126
230 -92 79 -214 69 -368 -29 -117 -75 -150 -111 -171 -183 -24 -79 -51 -221
-51 -263 l0 -30 -267 5 c-283 5 -322 10 -372 53 -17 14 -58 36 -93 50 -125 51
-223 105 -254 141 l-32 36 49 61 c55 67 88 145 96 222 l6 52 46 -32 c46 -31
47 -31 176 -31 118 1 142 4 265 38 74 21 155 45 180 54 25 8 80 28 122 44 96
35 219 59 312 60 39 0 123 6 186 14 63 7 172 13 241 14 115 1 132 -1 184 -24z
m-2574 -138 c38 -25 69 -79 62 -106 -8 -32 -48 -43 -93 -25 -47 19 -80 60 -80
101 0 57 51 70 111 30z m378 -243 c14 -31 14 -47 -1 -79 -16 -35 -55 -34 -69
2 -29 77 37 149 70 77z m-343 -69 c9 -36 -4 -62 -37 -74 -55 -19 -99 19 -85
74 12 49 110 49 122 0z m2280 37 c38 -25 46 -127 14 -180 -26 -42 -47 -50 -71
-25 -40 40 -37 146 6 189 26 26 33 28 51 16z m-215 -161 c35 -36 40 -88 10
-115 -27 -25 -60 -12 -77 30 -18 43 -18 64 2 92 20 29 30 28 65 -7z m449 -511
c0 -11 -50 -31 -61 -24 -17 10 20 42 42 37 10 -3 19 -9 19 -13z m-100 1 c0
-13 -25 -20 -50 -14 -16 4 -18 8 -8 14 17 11 58 11 58 0z m-556 -457 c12 -30
6 -111 -13 -186 -46 -180 -250 -600 -409 -846 -146 -223 -268 -498 -297 -668
-14 -84 -17 -91 -56 -123 -35 -30 -47 -35 -84 -32 -37 2 -49 -2 -82 -32 -21
-19 -58 -72 -82 -118 -25 -46 -56 -99 -69 -117 l-25 -33 -66 63 c-36 35 -88
81 -114 103 l-48 40 30 135 c16 74 43 207 61 295 60 307 96 430 165 562 57
108 77 123 333 249 l237 116 161 161 c88 89 182 187 209 217 47 53 105 159
105 191 0 15 19 39 31 39 4 0 10 -7 13 -16z m250 -73 c-6 -6 -11 1 -18 29 l-7
25 15 -25 c8 -14 12 -27 10 -29z m26 -31 c6 -11 9 -20 8 -20 -2 0 -11 9 -21
20 -9 11 -13 20 -7 20 5 0 14 -9 20 -20z m12 -52 c-7 -7 -12 -8 -12 -2 0 14
12 26 19 19 2 -3 -1 -11 -7 -17z m13 -28 c3 -5 1 -10 -4 -10 -6 0 -11 5 -11
10 0 6 2 10 4 10 3 0 8 -4 11 -10z m477 -500 c-3 -52 -9 -71 -33 -104 -16 -22
-29 -48 -29 -57 0 -10 22 -33 49 -53 90 -66 100 -106 50 -206 -20 -42 -29 -70
-25 -86 4 -13 4 -34 1 -47 -5 -19 -11 -22 -46 -19 -21 2 -42 9 -45 14 -4 5 -8
37 -10 70 -3 45 1 70 16 99 11 21 20 44 20 52 0 7 -19 31 -41 52 -95 92 -90
172 20 303 60 71 77 67 73 -18z m-412 25 c15 -18 40 -20 40 -3 0 24 28 -28 44
-81 18 -62 21 -176 5 -187 -7 -4 -9 -29 -4 -74 7 -71 -8 -120 -44 -146 -8 -7
-16 -29 -18 -49 -2 -44 -8 -51 -45 -60 -27 -7 -28 -6 -22 26 3 19 8 40 10 48
2 7 0 19 -6 26 -7 8 -2 26 16 61 19 36 25 58 21 89 -2 22 0 74 6 115 9 73 8
77 -22 143 -17 38 -31 77 -31 88 0 23 32 26 50 4z m-383 -162 c38 -48 46 -94
48 -267 l1 -139 -28 -31 c-28 -30 -30 -30 -44 -12 -13 19 -18 39 -15 60 1 4
-4 15 -11 24 -8 9 -14 51 -16 111 -1 53 -5 128 -8 166 -6 74 6 125 29 125 8 0
27 -17 44 -37z m553 -315 c0 -5 -7 -8 -15 -8 -10 0 -15 10 -15 27 0 26 1 26
15 7 8 -10 15 -22 15 -26z m-600 -823 c26 -31 -7 -64 -66 -65 -34 0 -74 -38
-74 -69 0 -52 43 -91 115 -100 35 -5 40 -10 43 -33 7 -63 -91 -60 -165 5 -100
88 -76 230 47 268 41 12 87 10 100 -6z m170 -95 c41 -29 64 -96 51 -147 -18
-67 -78 -105 -130 -83 -28 11 -61 56 -61 84 0 21 40 138 53 154 14 18 55 15
87 -8z m206 -115 l21 -80 13 55 c17 72 27 90 51 90 24 0 31 -17 59 -149 19
-92 20 -105 7 -119 -24 -23 -46 -7 -59 42 l-12 45 -28 -50 c-16 -27 -35 -49
-43 -49 -19 0 -45 39 -46 70 -1 24 -2 24 -8 -4 -8 -40 -35 -56 -57 -34 -16 16
-16 24 -1 123 19 123 30 147 60 143 18 -2 25 -16 43 -83z m362 -11 c42 -29 18
-81 -32 -68 -25 6 -56 -8 -56 -26 0 -3 21 -11 48 -16 44 -8 47 -11 47 -39 0
-30 0 -30 -58 -30 l-57 0 0 -42 c0 -32 -5 -45 -19 -53 -27 -14 -51 21 -51 72
0 151 96 260 178 202z m127 -66 c15 -53 21 -55 44 -10 24 47 33 54 55 46 22
-9 20 -62 -4 -101 -10 -18 -45 -96 -76 -175 -31 -79 -61 -146 -67 -150 -16
-10 -47 10 -47 30 0 10 18 64 40 120 l40 102 -20 32 c-21 35 -36 109 -26 134
11 29 49 12 61 -28z m182 -420 c-3 -7 -5 -2 -5 12 0 14 2 19 5 13 2 -7 2 -19
0 -25z m0 -50 c-3 -7 -5 -2 -5 12 0 14 2 19 5 13 2 -7 2 -19 0 -25z"/>
<path d="M4284 6248 c-17 -36 -26 -44 -76 -62 -60 -20 -75 -36 -35 -35 43 1
111 43 129 79 9 19 17 41 18 48 1 25 -17 11 -36 -30z"/>
<path d="M1583 6258 c2 -8 21 -13 43 -13 21 0 50 -8 64 -17 13 -10 35 -18 47
-18 12 0 31 -10 43 -22 25 -28 38 -16 17 16 -11 16 -30 26 -56 31 -22 4 -45
13 -52 21 -15 18 -113 20 -106 2z"/>
<path d="M3721 6248 c-19 -5 -46 -7 -60 -5 -27 6 -141 -39 -141 -54 0 -15 27
-10 62 10 38 21 183 37 193 21 4 -6 11 -8 16 -4 5 3 7 10 4 15 -12 19 -41 26
-74 17z"/>
<path d="M4735 6250 c-15 -24 90 -44 152 -28 63 15 53 30 -15 22 -32 -3 -74
-2 -95 4 -20 6 -39 6 -42 2z"/>
<path d="M3080 6159 c-44 -39 -80 -75 -80 -80 0 -23 31 -4 90 56 35 36 68 65
73 65 5 0 20 -9 34 -20 14 -11 34 -20 44 -20 9 0 28 -17 41 -37 17 -29 24 -34
26 -20 5 25 -24 66 -55 78 -14 5 -37 18 -51 29 -13 11 -28 20 -33 20 -5 0 -44
-32 -89 -71z"/>
<path d="M2273 6141 c-49 -36 -88 -79 -80 -87 4 -4 24 9 46 29 64 58 93 69
143 56 31 -8 51 -8 71 0 46 18 30 26 -58 28 -78 1 -87 -1 -122 -26z"/>
<path d="M5185 6134 c-34 -33 -44 -54 -27 -54 5 0 21 13 37 30 l28 30 55 -30
c31 -17 58 -28 60 -25 9 9 -21 36 -69 60 l-49 24 -35 -35z"/>
<path d="M2728 6143 c-10 -2 -18 -11 -18 -18 0 -10 9 -12 33 -8 44 7 92 -18
117 -60 26 -42 26 -46 -14 -98 -18 -24 -36 -61 -39 -83 -4 -21 -14 -47 -23
-57 -15 -16 -15 -19 -2 -19 22 0 37 21 44 61 8 42 20 66 50 102 28 33 30 57 9
97 -28 55 -107 97 -157 83z"/>
<path d="M3867 6135 c-47 -12 -76 -30 -66 -40 3 -3 27 2 53 11 38 13 56 14 83
6 19 -6 41 -8 48 -6 8 3 34 -3 59 -15 25 -11 48 -16 51 -11 10 16 -42 41 -104
50 -33 5 -64 10 -68 13 -4 3 -30 -1 -56 -8z"/>
<path d="M4442 6124 c-12 -8 -22 -22 -22 -31 0 -15 2 -15 18 0 34 30 67 31 95
1 19 -20 37 -28 77 -32 42 -4 52 -2 48 9 -3 8 -21 15 -43 17 -23 2 -51 14 -68
28 -33 28 -73 31 -105 8z"/>
<path d="M4976 6111 c-9 -10 -35 -21 -56 -25 -24 -4 -45 -15 -55 -29 -47 -66
-63 -97 -55 -102 16 -10 31 5 50 50 10 24 27 45 37 48 10 3 30 8 44 11 29 6
79 42 79 57 0 16 -26 10 -44 -10z"/>
<path d="M1660 6065 c-7 -9 -21 -13 -31 -10 -22 7 -75 -19 -88 -44 -16 -30 0
-33 26 -5 18 20 31 25 54 22 20 -3 34 1 46 14 24 27 47 22 82 -17 33 -38 41
-42 41 -22 0 7 -15 27 -33 45 -36 35 -76 42 -97 17z"/>
<path d="M2397 5929 c-9 -45 -22 -88 -28 -95 -17 -21 -73 -17 -103 7 -39 30
-44 16 -8 -21 36 -36 77 -39 115 -10 18 14 29 38 41 91 18 80 20 109 7 109 -4
0 -15 -37 -24 -81z"/>
<path d="M3417 5953 c-17 -17 -3 -24 37 -18 54 8 105 -7 136 -40 24 -25 43
-25 33 1 -11 30 -87 64 -145 64 -30 0 -58 -3 -61 -7z"/>
<path d="M4180 5932 c-9 -4 -31 -19 -50 -34 -20 -15 -48 -32 -64 -38 -20 -7
-26 -14 -19 -21 12 -12 57 8 110 49 35 26 45 26 122 -3 46 -17 82 -17 82 0 0
6 -17 13 -38 16 -21 3 -55 14 -75 23 -41 17 -45 18 -68 8z"/>
<path d="M2012 5901 c-16 -22 -32 -30 -70 -35 -31 -4 -56 -14 -68 -27 -16 -18
-26 -20 -66 -15 -28 4 -48 3 -48 -3 0 -27 93 -28 127 -1 14 11 40 20 58 20 34
0 78 28 95 60 16 31 -5 31 -28 1z"/>
<path d="M4427 5914 c-17 -17 11 -24 93 -24 90 0 120 5 120 21 0 10 -203 13
-213 3z"/>
<path d="M5000 5885 c0 -12 8 -14 38 -9 27 4 49 1 71 -11 26 -13 39 -14 63 -6
61 21 111 14 161 -24 58 -44 71 -29 16 18 -49 42 -95 52 -160 36 -37 -10 -54
-10 -74 -1 -39 18 -115 16 -115 -3z"/>
<path d="M1442 5828 c3 -7 15 -14 27 -16 12 -2 26 -14 31 -26 8 -23 86 -96
102 -96 19 0 6 27 -22 43 -16 10 -42 37 -57 60 -21 30 -37 43 -57 45 -20 3
-27 0 -24 -10z"/>
<path d="M5345 1376 c-18 -43 -13 -69 12 -64 28 5 39 51 20 79 l-16 23 -16
-38z"/>
<path d="M6335 9836 c-7 -174 -5 -214 26 -368 10 -53 19 -136 19 -185 0 -99
23 -162 80 -221 75 -77 251 -129 404 -118 39 3 146 8 239 12 l167 6 0 519 0
519 -265 0 c-227 0 -269 -2 -290 -16 -26 -17 -75 -13 -75 6 0 6 -58 10 -149
10 l-149 0 -7 -164z m576 79 c17 -29 24 -33 39 -25 83 44 166 -72 93 -130 -43
-33 -94 -14 -119 45 -11 26 -16 29 -49 27 -47 -5 -65 12 -65 57 0 44 14 61 52
61 22 0 33 -8 49 -35z m-39 -562 c40 -36 14 -107 -37 -101 -38 4 -58 40 -44
77 17 43 49 53 81 24z"/>
<path d="M286 6448 c-30 -46 -40 -78 -29 -89 8 -8 21 5 47 44 20 30 36 57 36
61 0 16 -41 4 -54 -16z"/>
<path d="M427 6443 c-11 -11 -8 -58 6 -76 14 -21 68 -27 74 -10 3 7 -7 18 -21
24 -19 9 -26 20 -26 41 0 26 -17 37 -33 21z"/>
<path d="M460 6225 c-36 -37 -67 -45 -76 -20 -9 22 -24 18 -24 -5 0 -20 27
-40 55 -40 20 0 107 79 99 91 -9 15 -19 10 -54 -26z"/>
</g>
</svg>
